<?xml version="1.0" encoding="iso-8859-1"?>
<!-- Generator: Adobe Illustrator 19.0.0, SVG Export Plug-In . SVG Version: 6.00 Build 0)  -->
<svg version="1.1" id="Capa_1" xmlns="http://www.w3.org/2000/svg" xmlns:xlink="http://www.w3.org/1999/xlink" x="0px" y="0px"
	 viewBox="0 0 512 512" style="enable-background:new 0 0 512 512;" xml:space="preserve">
<g>
	<g>
		<path d="M353.982,77.822l-33.953,33.953l-21.078-21.078c-17.006-17.006-46.682-16.977-63.629,0l-6.548,6.533
			c-73.912-19.804-153.734,8.817-197.838,73.106c-40.354,58.81-41.307,138.273-2.402,197.757
			c64.464,98.479,201.098,110.099,281.023,30.173c45.759-45.759,63.16-111.599,46.491-173.764l6.533-6.533
			c17.548-17.548,17.548-46.096,0-63.643l-21.342-21.342l33.953-33.953c17.222-17.222,46.813-4.876,46.813,19.394v197.566
			c0,8.291,6.709,14.999,14.999,14.999c8.29,0,14.999-6.709,14.999-14.999V118.424C452.003,67.602,390.057,41.746,353.982,77.822z
			 M103.838,318.819c4.541,6.929,2.593,16.229-4.351,20.756c-6.839,4.493-16.197,2.651-20.756-4.351
			c-25.34-38.729-24.637-92.588,1.685-130.949c4.702-6.841,14.032-8.555,20.844-3.882c6.841,4.688,8.569,14.018,3.882,20.844
			C85.514,249.858,84.987,289.977,103.838,318.819z"/>
	</g>
</g>
<g>
	<g>
		<path d="M437.005,360.988c-8.291,0-14.999,6.709-14.999,14.999v29.998c0,8.291,6.709,14.999,14.999,14.999
			c8.29,0,14.999-6.709,14.999-14.999v-29.998C452.004,367.697,445.296,360.988,437.005,360.988z"/>
	</g>
</g>
<g>
	<g>
		<path d="M507.606,365.383l-21.21-21.21c-5.859-5.859-15.351-5.859-21.21,0c-5.859,5.859-5.859,15.351,0,21.21l21.21,21.21
			c5.859,5.859,15.351,5.859,21.21,0C513.465,380.734,513.465,371.241,507.606,365.383z"/>
	</g>
</g>
<g>
	<g>
		<path d="M408.823,344.173c-5.859-5.859-15.35-5.86-21.21,0l-21.21,21.21c-5.859,5.859-5.859,15.351,0,21.21
			c5.859,5.859,15.351,5.859,21.21,0l21.21-21.21C414.682,359.524,414.682,350.032,408.823,344.173z"/>
	</g>
</g>
<g>
</g>
<g>
</g>
<g>
</g>
<g>
</g>
<g>
</g>
<g>
</g>
<g>
</g>
<g>
</g>
<g>
</g>
<g>
</g>
<g>
</g>
<g>
</g>
<g>
</g>
<g>
</g>
<g>
</g>
</svg>
